<svg xmlns="http://www.w3.org/2000/svg" width="302" height="302" viewBox="0 0 302 302">
  <g fill="none" fill-rule="evenodd" transform="translate(1 1)">
    <path fill="#D8D8D8" fill-rule="nonzero" stroke="#979797" d="M150,300 C67.1572875,300 0,232.842712 0,150 C0,67.1572875 67.1572875,0 150,0 C232.842712,0 300,67.1572875 300,150 C300,232.842712 232.842712,300 150,300 Z M150,280 C221.797017,280 280,221.797017 280,150 C280,78.2029825 221.797017,20 150,20 C78.2029825,20 20,78.2029825 20,150 C20,221.797017 78.2029825,280 150,280 Z"/>
    <polygon fill="#005073" points="159.734 -3.155 204.593 -3.155 238.751 7.974 159.734 151.978"/>
    <polygon fill="#ABC233" points="320.771 221.963 311.66 79.976 238.751 7.974 159.734 151.978"/>
    <path fill="#FC0" d="M159.733978,151.977969 C159.733978,151.977969 34.292526,168.106866 -19.0165472,177.338108 C-72.3256203,186.569349 85.7409656,307.11076 85.7409656,307.11076 L159.733978,307.11076 L159.733978,151.977969 Z"/>
    <polygon fill="#00ABFF" points="159.734 151.978 317.235 216.321 271.103 295.82 159.734 320.462"/>
    <path fill="#8F76B6" d="M159.733978,-18.358699 L159.733978,151.977969 L-7.52809456,177.902373 C-7.52809456,177.902373 -13.137082,170.586436 12.8097131,65.8131544 C38.7565081,-38.9601273 159.733978,-18.358699 159.733978,-18.358699 Z"/>
  </g>
</svg>
